<svg xmlns="http://www.w3.org/2000/svg" viewBox="0 0 1200 630" width="1200" height="630">
  <defs>
    <radialGradient id="bg" cx="0.5" cy="0.5" r="0.7">
      <stop offset="0" stop-color="#15263e"/>
      <stop offset="1" stop-color="#0B1220"/>
    </radialGradient>
  </defs>
  <rect width="1200" height="630" fill="url(#bg)"/>

  <!-- Title -->
  <text x="600" y="170" font-family="-apple-system, BlinkMacSystemFont, sans-serif" font-weight="900" font-style="italic" font-size="144" fill="#E8834F" text-anchor="middle" letter-spacing="6">EINS</text>
  <text x="600" y="240" font-family="-apple-system, BlinkMacSystemFont, sans-serif" font-weight="400" font-size="34" fill="#E6ECF3" text-anchor="middle" letter-spacing="2">A free card game · play in your browser</text>

  <!-- Cards display -->
  <g transform="translate(220, 320) rotate(-12 80 120)">
    <rect width="160" height="240" rx="20" fill="white" stroke="#0B1220" stroke-width="4"/>
    <rect x="12" y="12" width="136" height="216" rx="12" fill="#D03B2C"/>
    <text x="80" y="160" font-family="sans-serif" font-weight="900" font-size="120" fill="white" text-anchor="middle">3</text>
  </g>
  <g transform="translate(420, 360)">
    <rect width="160" height="240" rx="20" fill="white" stroke="#0B1220" stroke-width="4"/>
    <rect x="12" y="12" width="136" height="216" rx="12" fill="#2467D6"/>
    <text x="80" y="160" font-family="sans-serif" font-weight="900" font-size="120" fill="white" text-anchor="middle">7</text>
  </g>
  <g transform="translate(620, 320) rotate(8 80 120)">
    <rect width="160" height="240" rx="20" fill="white" stroke="#0B1220" stroke-width="4"/>
    <rect x="12" y="12" width="136" height="216" rx="12" fill="#2FA34A"/>
    <text x="80" y="160" font-family="sans-serif" font-weight="900" font-size="120" fill="white" text-anchor="middle">5</text>
  </g>
  <g transform="translate(820, 360) rotate(-4 80 120)">
    <rect width="160" height="240" rx="20" fill="white" stroke="#0B1220" stroke-width="4"/>
    <rect x="12" y="12" width="136" height="216" rx="12" fill="#1E3A8A"/>
    <text x="80" y="135" font-family="sans-serif" font-weight="800" font-style="italic" font-size="56" fill="white" text-anchor="middle" transform="rotate(-20 80 135)">Eins</text>
  </g>
</svg>
